<svg width="149" height="149" viewBox="0 0 149 149" fill="none" xmlns="http://www.w3.org/2000/svg">
  <circle cx="74.5" cy="74.5" r="74.5" fill="#FDCCCC"/>
  <path d="M12.5003 2.2915V22.7082M2.29199 12.4998H22.7087" stroke="#FF9A9B" stroke-width="4" stroke-linecap="round" stroke-linejoin="round" transform="translate(102, 30)"/>
  <path d="M70.875 52.375C70.875 54.0326 70.2165 55.6223 69.0444 56.7944C67.8723 57.9665 66.2826 58.625 64.625 58.625H8.375C6.7174 58.625 5.12769 57.9665 3.95558 56.7944C2.78348 55.6223 2.125 54.0326 2.125 52.375V18C2.125 16.3424 2.78348 14.7527 3.95558 13.5806C5.12769 12.4085 6.7174 11.75 8.375 11.75H20.875L27.125 2.375H45.875L52.125 11.75H64.625C66.2826 11.75 67.8723 12.4085 69.0444 13.5806C70.2165 14.7527 70.875 16.3424 70.875 18V52.375Z" stroke="#FF9A9B" stroke-width="4" stroke-linecap="round" stroke-linejoin="round" transform="translate(37, 45)"/>
  <path d="M36.5 46.125C43.4036 46.125 49 40.5286 49 33.625C49 26.7214 43.4036 21.125 36.5 21.125C29.5964 21.125 24 26.7214 24 33.625C24 40.5286 29.5964 46.125 36.5 46.125Z" stroke="#FF9A9B" stroke-width="4" stroke-linecap="round" stroke-linejoin="round" transform="translate(36, 45)"/>
</svg>
