<svg width="32" height="32" viewBox="0 0 24 24" fill="none" xmlns="http://www.w3.org/2000/svg">
    <path fill-rule="evenodd" clip-rule="evenodd" d="M12 0C5.373 0 0 5.373 0 12c0 5.303 3.438 9.8 8.207 11.387.6.111.793-.261.793-.58v-2.17c-3.338.726-4.042-1.415-4.042-1.415-.546-1.387-1.333-1.756-1.333-1.756-1.091-.745.083-.73.083-.73 1.205.084 1.838 1.237 1.838 1.237 1.07 1.834 2.809 1.305 3.492.998.108-.775.418-1.305.761-1.605-2.665-.304-5.466-1.334-5.466-5.933 0-1.31.468-2.382 1.237-3.22-.124-.303-.536-1.523.117-3.176 0 0 1.008-.322 3.301 1.23.957-.266 1.984-.399 3.005-.404 1.02.005 2.048.138 3.006.404 2.292-1.552 3.299-1.23 3.299-1.23.653 1.653.242 2.873.118 3.176.77.838 1.236 1.91 1.236 3.22 0 4.61-2.803 5.625-5.473 5.921.43.371.814 1.102.814 2.222v3.293c0 .322.192.694.8.577C20.565 21.796 24 17.302 24 12 24 5.373 18.627 0 12 0z" fill="#181717"/>
</svg>